<?xml version="1.0" encoding="utf-8"?>
<!-- Generator: Adobe Illustrator 22.1.0, SVG Export Plug-In . SVG Version: 6.00 Build 0)  -->
<svg version="1.1" xmlns="http://www.w3.org/2000/svg" xmlns:xlink="http://www.w3.org/1999/xlink" viewBox="0 0 1024 1024" xml:space="preserve">
<g>
	<path d="M242.8,356.9c14.8,18.9,10.8,29.3,10.8,29.3c21.3-30.1,53.1-6,68.4,6c15.3,12.1,36.2,13.7,36.2,13.7s6.8,4.6,8.9,14
		c3.2,22.1-15.1,21.3-15.1,21.3s-13.1-3.3-35.7-4c-12.9-0.5-27.7-1.5-48.3,3.2c-99.7,24.6-72.7,123.1-72.7,123.1
		c-1-70.3,40.7-105.3,74.1-107.3c62.2-1,63.3-6.4,63.3-6.4c66.5,4.3,58-48.3,58-48.3c-41.9-9.7-83.7-30-83.7-30
		c-4.3-13.9-15.1-17.1-15.1-17.1c-111.5-69.8-119-104.2-119-104.2c9.7,1,53.6,0,53.6,0c-10.7-4.3-16.1-13.9-16.1-13.9
		c34.4-39.7,18.3-72.9,18.3-72.9c-2.2,62.2-64.4,78.3-64.4,78.3C63.7,107.7,198.8,18.7,198.8,18.7c-78.3,34.4-86.8,94.4-86.8,94.4
		c-18.3-29-9.7-94.4-9.7-94.4s-34.7,103.6,13.9,193.8S228,338,242.8,356.9z"/>
	<path d="M324.1,128c2.4,24.1-2.5,48.4-11,71c-33.8,20.8-72.5-12.3-72.5-12.3c16.4,33.9,46.9,36.9,62.1,36.1
		c-23.7,47.7-58.2,83-58.2,83l15.3,15.3c0,0,66.4-66,81.7-141.6C367.7,67.6,296.1,0,296.1,0c19.7,26.6,28.8,77.6,28.8,77.6
		C284,16.1,211.2,21.3,211.2,21.3S315.2,40.7,324.1,128z"/>
	<path d="M882.4,1013.5c-29.6-35.4-82.7-96.4-101.7-177.9c-86.8-67-104.3-127.6-121.2-179.4c-14-42.7-34.9-56.4-34.9-56.4l58.8,4.8
		c0,0-74.1-45.1-218-45.1c-144.1,0.1-186.2-65.8-186.2-65.8c28.6,111.8,284.3,113.4,284.3,113.4s81.3,90.2,39.4,124.7
		c-46.7,37-235.7-17.7-235.7-17.7s25.8,23.3,110.2,49.1c58.2,17.1,101.3,7.6,148.1,23.3c70.6,25.8,103.7,64.2,117.3,80.5
		c24.8,28.1,72.8,114.6,88.3,143c-69.2-4.6-156.2-8.7-253.1-9.6c23.4-54.8,51.9-83.5,56.9-98.8c3.1-9.1-20.4-36.1-38.6-61.2
		c-15.4-21.2-25.8-41.9-25.8-41.9l-94-12c0,0,112.6,107,113.4,121.4c0.6,10.4-27.6,63.3-43.5,92.2c-75.7-0.1-156.9,2.4-232.1,5.8
		c1-46.3-1.9-93.4,15.6-192.1c9.2-52.5,23.3-74.9,23.3-74.9c39.5,16.1,64.4,19.7,64.4,19.7c-44.3-13.2-78.9-51.9-78.9-51.9
		c-29.2,18.7-41.8,111.4-44.3,189.9c-1.6,49.9-4.1,93.8-5.1,110.5c-7.8,0.3-15.4,0.8-22.9,1.1c0.1-26,0.7-143.3,0-152.6
		c4-135.1-56.3-185.8-72.5-251.5c-26.5-100-0.5-159.4,21-184.4c11.4-13.2,22.1-10,22.1-10c-12.9-21.3,8.9-35.4-35.6-71.2
		c-25.3-19.6-42.3-45.1-42.3-45.1c-6.8,61.2,33.4,76.5,33.4,76.5s-60.8,89.8-56.3,181.8c9.4,119.4,81.3,158.5,97.3,239.8
		c10.4,45.6,11.9,180.8,12,218.1c-122.3,6.6-214.8,14.4-214.8,14.4h962.1C993,1023.8,951.6,1018.9,882.4,1013.5z"/>
</g>
</svg>
